<?xml version="1.0" encoding="utf-8"?>
<!-- Generator: Adobe Illustrator 18.1.1, SVG Export Plug-In . SVG Version: 6.00 Build 0)  -->
<!DOCTYPE svg PUBLIC "-//W3C//DTD SVG 1.1//EN" "http://www.w3.org/Graphics/SVG/1.1/DTD/svg11.dtd">
<svg version="1.1" id="Layer_1" xmlns="http://www.w3.org/2000/svg" xmlns:xlink="http://www.w3.org/1999/xlink" x="0px" y="0px"
	 viewBox="0 0 193.1 48.6" enable-background="new 0 0 193.1 48.6" xml:space="preserve">
<g>
	<path fill="#FFFFFF" d="M0,22.1c0-2.7,0.5-4.1,2.7-5.9L6,13.5c2.1-1.7,3.2-1.8,5.8-1.8h7.1c1.5,0,3.1,0.3,3.1,2.2
		c0,2-1.8,2.2-3.1,2.2h-7.9c-0.9,0-1.8,0.5-2.6,1.1l-2.7,2.3c-0.7,0.6-1.2,1-1.2,1.9v5.5C4.5,28,5,28.4,5.7,29l2.7,2.3
		c0.8,0.7,1.7,1.1,2.6,1.1h7.9c1.3,0,3.1,0.3,3.1,2.2c0,1.9-1.6,2.2-3.1,2.2h-7.1c-2.6,0-3.7,0-5.8-1.8l-3.3-2.7
		C0.5,30.6,0,29.2,0,26.5V22.1z"/>
	<path fill="#FFFFFF" d="M31.8,20.1c0-3,0.6-4,2.8-5.8c2.2-1.8,3.2-2.5,6.3-2.5h3.5c3.1,0,4.1,0.7,6.3,2.5c2.2,1.8,2.8,2.8,2.8,5.8
		v8.4c0,2.9-0.7,4.1-3.1,6c-2.3,2-3.3,2.3-6.1,2.3H41c-2.8,0-3.8-0.4-6.1-2.3c-2.3-2-3.1-3.1-3.1-6V20.1z M36.3,28.5
		c0,0.9,0.3,1.5,1.6,2.7c1,0.8,1.7,1.2,3.1,1.2h3.5c1.4,0,2.1-0.4,3.1-1.2c1.3-1.1,1.6-1.7,1.6-2.7v-8.4c0-0.9-0.3-1.5-1.6-2.7
		c-1-0.8-1.7-1.2-3.1-1.2H41c-1.4,0-2.1,0.4-3.1,1.2c-1.3,1.1-1.6,1.7-1.6,2.7V28.5z"/>
	<path fill="#FFFFFF" d="M71.7,16.2c-0.9,0-2.5-0.2-2.5,1.3c0,0.7,0.6,1,1.2,1.3l11.2,5.1c2.9,1.3,4.4,3.1,4.4,6.3
		c0,4.5-3.1,6.7-7.4,6.7h-6.9c-2.3,0-3.9-0.1-5.6-1.4c-0.8-0.7-2-1.5-2-2.6c0-1.3,1.1-2.2,2.3-2.2c0.7,0,1.2,0.2,1.7,0.8
		c0.8,0.9,2.2,1,3.6,1h6.1c1.6,0,3.7,0.1,3.7-2.5c0-1.1-1.3-1.8-2.3-2.2l-10.5-4.8c-2.5-1.1-3.9-2.6-3.9-5.4c0-3.5,2.8-5.7,6.1-5.7
		h7.6c2.5,0,3.5,0.1,5.2,1.5c0.8,0.7,1.8,1.3,1.8,2.5c0,1.3-1.1,2.2-2.3,2.2c-0.8,0-1.4-0.3-1.9-0.9c-0.7-0.8-1.5-0.9-2.7-0.9H71.7z
		"/>
	<path fill="#FFFFFF" d="M153.1,32.4h3.4c1.5,0,3.1,0.3,3.1,2.2c0,2-1.8,2.2-3.1,2.2h-11.4c-1.3,0-3.1-0.3-3.1-2.2
		c0-1.9,1.6-2.2,3.1-2.2h3.5V16.2h-3.5c-1.3,0-3.1-0.3-3.1-2.2c0-1.9,1.6-2.2,3.1-2.2h4.7c2.6,0,3.3,0.5,3.3,3.1V32.4z M146.3,2.7
		c0-1.6,0.9-2.1,2.1-2.1h2.6c1.2,0,2.1,0.5,2.1,2.1v2.1c0,1.6-0.9,2.1-2.1,2.1h-2.6c-1.2,0-2.1-0.5-2.1-2.1V2.7z"/>
	<path fill="#FFFFFF" d="M179.1,24.3l-6.8-8.1c-0.5-0.7-1.1-1.3-1.1-2.1c0-1.3,1-2.4,2.2-2.4c1.4,0,2.2,1.4,3,2.4l5.7,7l5.7-7
		c0.8-1,1.7-2.4,3-2.4c1.3,0,2.2,1.1,2.2,2.4c0,0.8-0.6,1.4-1.1,2.1l-6.8,8.1l6.8,8.1c0.5,0.7,1.1,1.3,1.1,2.1c0,1.3-1,2.3-2.2,2.3
		c-1.3,0-2.2-1.4-3-2.3l-5.7-7l-5.7,7c-0.8,1-1.7,2.3-3,2.3c-1.3,0-2.2-1.1-2.2-2.3c0-0.8,0.6-1.4,1.1-2.1L179.1,24.3z"/>
	<path fill="#FFFFFF" d="M109.5,24.9c-0.3-2.5-0.6-5.4-0.9-7.9c-0.1-0.7-0.2-0.7-0.3,0c-0.3,2.5-0.6,5.6-0.8,8
		c-1,10.6-1.5,16.4-4.4,16.4c-2.9,0-3.6-5-4.3-9.4c-0.1-0.9-0.3-2-0.5-2.9c-0.1-0.7-0.7-1.2-1.2-1.2h-6.2c-0.5,0-0.9-0.6-0.9-1.2
		v-2.5c0-0.7,0.4-1.2,0.9-1.2h7.6c2.4,0,3,3.9,3.6,8c0.1,0.7,0.2,1.6,0.4,2.5c0.1,0.7,0.3,0.7,0.4,0c0.4-2.7,0.7-6.3,1-9
		c1-10.5,1.6-16.8,4.5-16.8c2.7,0,3.3,5.2,4.5,16.7c0.5,4.6,1,9.3,1.6,13.1c0.4,2.5,0.8,4,1.1,4.9c0.2,0.6,0.6,0.6,0.8,0
		c1-4.1,1.8-14.4,2.2-20.4C119.7,6.3,120.3,0,123.4,0c3.6,0,4.1,8.2,4.8,18.6c0.1,2.2,0.3,5.1,0.6,7.3c0.1,0.7,0.1,1.2,0.2,1.2
		c0,0,0,0,0,0c0.4-1.6,1.1-4.2,3.2-4.2h7.2c0.5,0,0.9,0.6,0.9,1.2v2.5c0,0.7-0.4,1.2-0.9,1.2h-5.9c-0.5,0-0.9,0.2-1,0.5
		c0,0.2-0.1,0.3-0.1,0.5c-0.5,1.7-1.3,4.9-3.8,4.9c-2.7,0-3.1-5.2-3.7-14.6c-0.2-3-0.5-7.7-1-10.9c-0.1-0.7-0.3-0.7-0.4,0
		c-0.5,3.8-0.9,9.7-1.2,14.1c-1.2,16.8-2,26.4-6,26.4C112.3,48.6,111,39.6,109.5,24.9z"/>
</g>
</svg>
