<?xml version="1.0" encoding="utf-8"?>
<!-- Generator: Adobe Illustrator 18.1.1, SVG Export Plug-In . SVG Version: 6.00 Build 0)  -->
<svg version="1.1" id="Layer_1" xmlns="http://www.w3.org/2000/svg" xmlns:xlink="http://www.w3.org/1999/xlink" x="0px" y="0px"
	 viewBox="0 0 179 151.2" enable-background="new 0 0 179 151.2" xml:space="preserve">
<g>
	<path fill-rule="evenodd" clip-rule="evenodd" fill="#2D2D2D" d="M82.5,151.2c41.8,0,75.6-33.9,75.6-75.6
		C158.1,33.9,124.2,0,82.5,0C40.7,0,6.8,33.9,6.8,75.6C6.8,117.4,40.7,151.2,82.5,151.2L82.5,151.2z"/>
	<path fill-rule="evenodd" clip-rule="evenodd" fill="#FFFFFF" d="M81.7,103.7c-1.6-0.3-6-4.3-6-4.3l-1.4,1.3c0,0,3.2,3.7,5.1,6.3
		L81.7,103.7L81.7,103.7z"/>
	<path fill-rule="evenodd" clip-rule="evenodd" fill="#FFFFFF" d="M61,119c0.5,0,0.9-0.4,0.9-0.9c0-0.5-0.4-0.9-0.9-0.9
		c-0.5,0-0.9,0.4-0.9,0.9C60.1,118.6,60.5,119,61,119L61,119z"/>
	<path fill-rule="evenodd" clip-rule="evenodd" fill="#FFFFFF" d="M61.8,126c0.4,0,0.7-0.3,0.7-0.7c0-0.4-0.3-0.7-0.7-0.7
		c-0.4,0-0.7,0.3-0.7,0.7C61.2,125.7,61.5,126,61.8,126L61.8,126z"/>
	<path fill-rule="evenodd" clip-rule="evenodd" fill="#FFFFFF" d="M93.2,119.4c0.3,0,0.6-0.3,0.6-0.6c0-0.3-0.3-0.6-0.6-0.6
		c-0.3,0-0.6,0.3-0.6,0.6C92.5,119.1,92.8,119.4,93.2,119.4L93.2,119.4z"/>
	<path fill-rule="evenodd" clip-rule="evenodd" fill="#FFFFFF" d="M114.4,106.4c0.2,0,0.4-0.2,0.4-0.4c0-0.2-0.2-0.4-0.4-0.4
		c-0.2,0-0.4,0.2-0.4,0.4C113.9,106.2,114.1,106.4,114.4,106.4L114.4,106.4z"/>
	<path fill-rule="evenodd" clip-rule="evenodd" fill="#FFFFFF" d="M115,114.8c0.2,0,0.4-0.2,0.4-0.4c0-0.2-0.2-0.4-0.4-0.4
		c-0.2,0-0.4,0.2-0.4,0.4C114.5,114.7,114.7,114.8,115,114.8L115,114.8z"/>
	<path fill-rule="evenodd" clip-rule="evenodd" fill="#FFFFFF" d="M118.9,130.8c0.5,0,0.9-0.4,0.9-0.9c0-0.5-0.4-0.9-0.9-0.9
		c-0.5,0-0.9,0.4-0.9,0.9C118,130.4,118.4,130.8,118.9,130.8L118.9,130.8z"/>
	<path fill-rule="evenodd" clip-rule="evenodd" fill="#FFFFFF" d="M119.8,102.9c0.5,0,0.9-0.4,0.9-0.9c0-0.5-0.4-0.9-0.9-0.9
		c-0.5,0-0.9,0.4-0.9,0.9C118.9,102.5,119.3,102.9,119.8,102.9L119.8,102.9z"/>
	<path fill-rule="evenodd" clip-rule="evenodd" fill="#FFFFFF" d="M120.1,108c0.3,0,0.5-0.2,0.5-0.5c0-0.3-0.2-0.5-0.5-0.5
		c-0.3,0-0.5,0.2-0.5,0.5C119.6,107.8,119.8,108,120.1,108L120.1,108z"/>
	<path fill-rule="evenodd" clip-rule="evenodd" fill="#FFFFFF" d="M128.7,98.2c0.3,0,0.5-0.2,0.5-0.5c0-0.3-0.2-0.5-0.5-0.5
		c-0.3,0-0.5,0.2-0.5,0.5C128.2,98,128.4,98.2,128.7,98.2L128.7,98.2z"/>
	<path fill-rule="evenodd" clip-rule="evenodd" fill="#FFFFFF" d="M137.1,107.9c0.3,0,0.6-0.3,0.6-0.6c0-0.3-0.3-0.6-0.6-0.6
		c-0.3,0-0.6,0.3-0.6,0.6C136.5,107.6,136.8,107.9,137.1,107.9L137.1,107.9z"/>
	<path fill-rule="evenodd" clip-rule="evenodd" fill="#FFFFFF" d="M140.9,106.1c0.4,0,0.8-0.3,0.8-0.8c0-0.4-0.3-0.8-0.8-0.8
		s-0.8,0.3-0.8,0.8C140.1,105.7,140.5,106.1,140.9,106.1L140.9,106.1z"/>
	<path fill-rule="evenodd" clip-rule="evenodd" fill="#FFFFFF" d="M130.1,114.2c0.4,0,0.7-0.3,0.7-0.7c0-0.4-0.3-0.7-0.7-0.7
		c-0.4,0-0.7,0.3-0.7,0.7C129.3,113.8,129.7,114.2,130.1,114.2L130.1,114.2z"/>
	<path fill-rule="evenodd" clip-rule="evenodd" fill="#FFFFFF" d="M137.8,117.7c0.2,0,0.4-0.2,0.4-0.4c0-0.2-0.2-0.4-0.4-0.4
		c-0.2,0-0.4,0.2-0.4,0.4C137.4,117.5,137.6,117.7,137.8,117.7L137.8,117.7z"/>
	<path fill-rule="evenodd" clip-rule="evenodd" fill="#FFFFFF" d="M88.6,19c0.5,0,0.9-0.4,0.9-0.9c0-0.5-0.4-0.9-0.9-0.9
		c-0.5,0-0.9,0.4-0.9,0.9C87.7,18.6,88.1,19,88.6,19L88.6,19z"/>
	<path fill-rule="evenodd" clip-rule="evenodd" fill="#FFFFFF" d="M85,9.4c0.3,0,0.5-0.2,0.5-0.5c0-0.3-0.2-0.5-0.5-0.5
		c-0.3,0-0.5,0.2-0.5,0.5C84.4,9.2,84.7,9.4,85,9.4L85,9.4z"/>
	<path fill-rule="evenodd" clip-rule="evenodd" fill="#FFFFFF" d="M84.1,21.3c0.2,0,0.3-0.1,0.3-0.3c0-0.2-0.1-0.3-0.3-0.3
		c-0.2,0-0.3,0.1-0.3,0.3C83.8,21.1,83.9,21.3,84.1,21.3L84.1,21.3z"/>
	<path fill-rule="evenodd" clip-rule="evenodd" fill="#FFFFFF" d="M69.7,22.7c0.4,0,0.7-0.3,0.7-0.7c0-0.4-0.3-0.7-0.7-0.7
		c-0.4,0-0.7,0.3-0.7,0.7C69,22.4,69.3,22.7,69.7,22.7L69.7,22.7z"/>
	<path fill-rule="evenodd" clip-rule="evenodd" fill="#FFFFFF" d="M68.4,21.1c0.2,0,0.3-0.1,0.3-0.3c0-0.2-0.1-0.3-0.3-0.3
		c-0.2,0-0.3,0.1-0.3,0.3C68.1,21,68.3,21.1,68.4,21.1L68.4,21.1z"/>
	<path fill-rule="evenodd" clip-rule="evenodd" fill="#FFFFFF" d="M98.3,34.9c0.4,0,0.6-0.3,0.6-0.6c0-0.4-0.3-0.6-0.6-0.6
		c-0.4,0-0.6,0.3-0.6,0.6C97.7,34.6,97.9,34.9,98.3,34.9L98.3,34.9z"/>
	<path fill-rule="evenodd" clip-rule="evenodd" fill="#FFFFFF" d="M106.2,72.6c0,0,11.4,3.5,7.6,13.3c0,0-4.9,10-19.6,5.1l-3,2.7
		L91,84.2l4.3,3.2c0,0,9.8,2.7,10-3c0,0-0.5-2.1-8-4.4c0,0-8.8-2.7-6.8-10.4c0,0,1.4-12,18.8-7.2l3-1.6l0,9.2l-3.8-3.7
		c0,0-7.9-2.5-9,1.3C98.2,71.9,103.3,71.6,106.2,72.6L106.2,72.6z"/>
	<polygon fill-rule="evenodd" clip-rule="evenodd" fill="#FFFFFF" points="123.2,62 136.3,62 146.9,87.5 150.4,90.9 132.5,90.9 
		135.4,88 133.9,84.2 124.3,84.2 123.1,88.2 125.1,90.9 116.6,90.9 119.5,87.9 126.6,65.5 123.2,62 	"/>
	<polygon fill-rule="evenodd" clip-rule="evenodd" fill="#2C2C2C" points="132.6,80.2 128.5,70.3 125.4,80.2 132.6,80.2 	"/>
	<path fill-rule="evenodd" clip-rule="evenodd" fill="#FFFFFF" d="M80.1,17c0.5,0,0.9-0.4,0.9-0.9c0-0.5-0.4-0.9-0.9-0.9
		c-0.5,0-0.9,0.4-0.9,0.9C79.1,16.6,79.6,17,80.1,17L80.1,17z"/>
	<path fill-rule="evenodd" clip-rule="evenodd" fill="#FFFFFF" d="M56.5,37.5c0.4,0,0.6-0.3,0.6-0.6c0-0.4-0.3-0.6-0.6-0.6
		c-0.4,0-0.6,0.3-0.6,0.6C55.9,37.2,56.2,37.5,56.5,37.5L56.5,37.5z"/>
	<path fill-rule="evenodd" clip-rule="evenodd" fill="#FFFFFF" d="M58.5,40.7c0.4,0,0.6-0.3,0.6-0.6c0-0.4-0.3-0.6-0.6-0.6
		c-0.4,0-0.6,0.3-0.6,0.6C57.8,40.4,58.1,40.7,58.5,40.7L58.5,40.7z"/>
	<path fill-rule="evenodd" clip-rule="evenodd" fill="#FFFFFF" d="M64.1,48.1c0.2,0,0.3-0.1,0.3-0.3c0-0.2-0.1-0.3-0.3-0.3
		c-0.2,0-0.3,0.1-0.3,0.3C63.8,47.9,63.9,48.1,64.1,48.1L64.1,48.1z"/>
	<path fill-rule="evenodd" clip-rule="evenodd" fill="#FFFFFF" d="M71.3,23.2c0.2,0,0.3-0.1,0.3-0.3s-0.1-0.3-0.3-0.3
		c-0.2,0-0.3,0.1-0.3,0.3S71.1,23.2,71.3,23.2L71.3,23.2z"/>
	<path fill-rule="evenodd" clip-rule="evenodd" fill="#FFFFFF" d="M70.4,26.9c0.3,0,0.5-0.2,0.5-0.5c0-0.3-0.2-0.5-0.5-0.5
		c-0.3,0-0.5,0.2-0.5,0.5C69.9,26.7,70.1,26.9,70.4,26.9L70.4,26.9z"/>
	<path fill-rule="evenodd" clip-rule="evenodd" fill="#FFFFFF" d="M81.3,23.2c0.3,0,0.5-0.2,0.5-0.5c0-0.3-0.2-0.5-0.5-0.5
		c-0.3,0-0.5,0.2-0.5,0.5C80.7,23,81,23.2,81.3,23.2L81.3,23.2z"/>
	<path fill-rule="evenodd" clip-rule="evenodd" fill="#FFFFFF" d="M87.9,27.1c0.3,0,0.5-0.2,0.5-0.5c0-0.3-0.2-0.5-0.5-0.5
		c-0.3,0-0.5,0.2-0.5,0.5C87.4,26.9,87.6,27.1,87.9,27.1L87.9,27.1z"/>
	<path fill-rule="evenodd" clip-rule="evenodd" fill="#FFFFFF" d="M132.3,118.6c0.6,0,1.1-0.5,1.1-1.1s-0.5-1.1-1.1-1.1
		c-0.6,0-1.1,0.5-1.1,1.1S131.6,118.6,132.3,118.6L132.3,118.6z"/>
	<polygon fill-rule="evenodd" clip-rule="evenodd" fill="#FFFFFF" points="131.6,116.5 132.3,114.5 132.9,116.5 131.6,116.5 	"/>
	<polygon fill-rule="evenodd" clip-rule="evenodd" fill="#FFFFFF" points="131.6,118.3 132.3,120.2 132.9,118.3 131.6,118.3 	"/>
	<polygon fill-rule="evenodd" clip-rule="evenodd" fill="#FFFFFF" points="131.3,118.1 129.4,117.4 131.3,116.8 131.3,118.1 	"/>
	<polygon fill-rule="evenodd" clip-rule="evenodd" fill="#FFFFFF" points="133.2,118.1 135.1,117.4 133.2,116.8 133.2,118.1 	"/>
	<path fill-rule="evenodd" clip-rule="evenodd" fill="#FFFFFF" d="M130.2,102.6c0.4,0,0.7-0.3,0.7-0.7c0-0.4-0.3-0.7-0.7-0.7
		c-0.4,0-0.7,0.3-0.7,0.7C129.5,102.3,129.8,102.6,130.2,102.6L130.2,102.6z"/>
	<path fill-rule="evenodd" clip-rule="evenodd" fill="#FFFFFF" d="M106.4,132.7c0.4,0,0.7-0.3,0.7-0.7c0-0.4-0.3-0.7-0.7-0.7
		c-0.4,0-0.7,0.3-0.7,0.7C105.7,132.4,106,132.7,106.4,132.7L106.4,132.7z"/>
	<path fill-rule="evenodd" clip-rule="evenodd" fill="#FFFFFF" d="M79.1,124.7c0.4,0,0.7-0.3,0.7-0.7c0-0.4-0.3-0.7-0.7-0.7
		c-0.4,0-0.7,0.3-0.7,0.7C78.4,124.3,78.7,124.7,79.1,124.7L79.1,124.7z"/>
	<path fill-rule="evenodd" clip-rule="evenodd" fill="#FFFFFF" d="M53.4,124.9c0.4,0,0.7-0.3,0.7-0.7c0-0.4-0.3-0.7-0.7-0.7
		c-0.4,0-0.7,0.3-0.7,0.7C52.6,124.6,53,124.9,53.4,124.9L53.4,124.9z"/>
	<path fill-rule="evenodd" clip-rule="evenodd" fill="#FFFFFF" d="M56.3,108c0.3,0,0.5-0.2,0.5-0.5c0-0.3-0.2-0.5-0.5-0.5
		c-0.3,0-0.5,0.2-0.5,0.5C55.8,107.8,56,108,56.3,108L56.3,108z"/>
	<path fill-rule="evenodd" clip-rule="evenodd" fill="#FFFFFF" d="M47.5,114.1c0.3,0,0.5-0.2,0.5-0.5c0-0.3-0.2-0.5-0.5-0.5
		c-0.3,0-0.5,0.2-0.5,0.5C47,113.9,47.2,114.1,47.5,114.1L47.5,114.1z"/>
	<path fill-rule="evenodd" clip-rule="evenodd" fill="#FFFFFF" d="M58.1,94c0.3,0,0.5-0.2,0.5-0.5c0-0.3-0.2-0.5-0.5-0.5
		c-0.3,0-0.5,0.2-0.5,0.5C57.7,93.8,57.9,94,58.1,94L58.1,94z"/>
	<path fill-rule="evenodd" clip-rule="evenodd" fill="#FFFFFF" d="M27.8,108.3c0.3,0,0.5-0.2,0.5-0.5c0-0.3-0.2-0.5-0.5-0.5
		c-0.3,0-0.5,0.2-0.5,0.5C27.3,108,27.5,108.3,27.8,108.3L27.8,108.3z"/>
	<path fill-rule="evenodd" clip-rule="evenodd" fill="#FFFFFF" d="M35.9,109c0.3,0,0.5-0.2,0.5-0.5c0-0.3-0.2-0.5-0.5-0.5
		c-0.3,0-0.5,0.2-0.5,0.5C35.4,108.8,35.6,109,35.9,109L35.9,109z"/>
	<path fill-rule="evenodd" clip-rule="evenodd" fill="#FFFFFF" d="M34.4,113c0.5,0,0.9-0.4,0.9-0.9c0-0.5-0.4-0.9-0.9-0.9
		c-0.5,0-0.9,0.4-0.9,0.9C33.5,112.6,33.9,113,34.4,113L34.4,113z"/>
	<path fill-rule="evenodd" clip-rule="evenodd" fill="#FFFFFF" d="M37.2,116.4c0.5,0,0.9-0.4,0.9-0.9c0-0.5-0.4-0.9-0.9-0.9
		c-0.5,0-0.9,0.4-0.9,0.9C36.3,116,36.7,116.4,37.2,116.4L37.2,116.4z"/>
	<path fill-rule="evenodd" clip-rule="evenodd" fill="#484748" d="M150.3,32.9C163.9,21.7,175.1,12,179,4.7c0,0-8.6,28.9-49,59.1
		c0,0-61.6,42.1-78.5,53.9c0,0-15.5,11-28.7,28l-0.3-2.8c0,0,9.9-14.5,32.4-30.4c19.8-14,27.2-18.7,27.2-18.7s47-29.4,56.7-42.2
		c0,0-33.7,19.4-91.9,30.6c0,0-26.9,6.8-44.5,17.8H0c0,0,15.3-13,50.9-23.2C50.9,76.8,111.1,58.9,150.3,32.9L150.3,32.9z"/>
	<polygon fill-rule="evenodd" clip-rule="evenodd" fill="#FFFFFF" points="20.3,62.1 32.4,62.1 42.8,79.6 42.8,64.2 40.9,62.1 
		48.6,62.1 46.7,65 46.7,87.9 49.4,90.9 37.3,90.9 26.9,72.9 26.9,88 29.1,90.9 19.9,90.9 22.5,87.8 22.5,65.5 20.3,62.1 	"/>
	<polygon fill-rule="evenodd" clip-rule="evenodd" fill="#FFFFFF" points="60.8,62 74.2,62 83.8,87.5 87.3,90.9 70,90.9 72.9,88.1 
		71.4,84.2 61.8,84.2 61.2,88.2 63.2,90.9 54.2,90.9 57.4,88 64.1,65.6 60.8,62 	"/>
	<polygon fill-rule="evenodd" clip-rule="evenodd" fill="#2C2C2C" points="70.1,80.2 66.1,70.3 62.9,80.2 70.1,80.2 	"/>
	<polygon fill-rule="evenodd" clip-rule="evenodd" fill="#484748" points="65.6,72 66.6,71.6 68.9,77.2 63.5,78.6 65.6,72 	"/>
	<path fill-rule="evenodd" clip-rule="evenodd" fill="#FFFFFF" d="M90.8,74c0,0-3-8.2,6.1-11.3c0,0,4.3-3.5,13.5,0l2-1.8v9.2
		c0,0-4.2-4.4-7.2-4.8c-3-0.4-6.1,0.4-5.6,4.8L90.8,74L90.8,74z"/>
	<path fill="#FFFFFF" d="M97.6,117.3c4.5,2.6,8.8,4.3,12.5,4.8c3.6,0.5,6.7-0.1,9-1.8c0.3-0.2,0.6-0.5,0.9-0.7
		c10.8-10.3-2.1-44.3-22.2-65.4l0,0c0,0-1.9-2.2-3.1-3.4l0.7-0.7c1.2,1.2,3,3.2,3.2,3.5c0,0,0,0,0,0c0,0,0,0,0,0l0,0
		c20.4,21.4,33.3,56.1,22.1,66.7c-0.3,0.3-0.6,0.5-0.9,0.8c-2.5,1.9-5.8,2.5-9.7,2c-3.9-0.5-8.3-2.2-12.9-4.9L97.6,117.3L97.6,117.3
		z M98.5,53.6C98.6,53.6,98.6,53.6,98.5,53.6L98.5,53.6L98.5,53.6z"/>
	<path fill="#FFFFFF" d="M96.9,53.3c-0.2-0.2-0.3-0.4-0.4-0.5h0c-0.2-0.2-0.3-0.4-0.5-0.5C86.3,41,77.9,34.1,70.8,30.6
		c-8.3-4.2-14.7-3.9-19.3-1c-4,2.5-5.5,9.7-2.8,20.8c2.3,9.4,7.5,21.4,16.7,35.6l0,0c0,0,8.5,11.7,9.4,12.4l-0.6,0.9
		c-1.1-0.8-9.6-12.6-9.6-12.6l0,0c-9.3-14.3-14.6-26.5-16.9-36c-2.8-11.6-1.1-19.2,3.3-22c4.9-3.1,11.7-3.4,20.3,0.9
		c7.2,3.6,15.7,10.5,25.5,21.9c0.2,0.2,0.3,0.4,0.5,0.5h0c0.2,0.2,0.3,0.4,0.5,0.5L96.9,53.3L96.9,53.3z"/>
	<path fill-rule="evenodd" clip-rule="evenodd" fill="#FFFFFF" d="M79.9,107.5c2.1,1.8,4.4,2.6,5.2,1.7c0.7-0.9-0.4-3.1-2.5-4.9
		c-2.1-1.8-4.4-2.6-5.2-1.7C76.7,103.5,77.8,105.7,79.9,107.5L79.9,107.5z"/>
	<path fill-rule="evenodd" clip-rule="evenodd" fill="#FFFFFF" d="M99.7,19.3c0.8,0,1.4-0.6,1.4-1.4c0-0.8-0.6-1.4-1.4-1.4
		c-0.8,0-1.4,0.6-1.4,1.4C98.3,18.7,98.9,19.3,99.7,19.3L99.7,19.3z"/>
	<polygon fill-rule="evenodd" clip-rule="evenodd" fill="#FFFFFF" points="98.9,16.7 99.7,11.6 100.5,16.7 98.9,16.7 	"/>
	<polygon fill-rule="evenodd" clip-rule="evenodd" fill="#FFFFFF" points="98.9,19 99.7,24 100.5,19 98.9,19 	"/>
	<polygon fill-rule="evenodd" clip-rule="evenodd" fill="#FFFFFF" points="98.5,18.7 93.3,17.9 98.5,17.1 98.5,18.7 	"/>
	<polygon fill-rule="evenodd" clip-rule="evenodd" fill="#FFFFFF" points="100.9,18.7 106.3,17.9 100.9,17.1 100.9,18.7 	"/>
	<path fill-rule="evenodd" clip-rule="evenodd" fill="#FFFFFF" d="M64.5,39.6c0.8,0,1.4-0.6,1.4-1.4c0-0.8-0.6-1.4-1.4-1.4
		c-0.8,0-1.4,0.6-1.4,1.4C63.1,38.9,63.7,39.6,64.5,39.6L64.5,39.6z"/>
	<polygon fill-rule="evenodd" clip-rule="evenodd" fill="#FFFFFF" points="63.6,37 64.5,31.9 65.3,36.9 63.6,37 	"/>
	<polygon fill-rule="evenodd" clip-rule="evenodd" fill="#FFFFFF" points="63.6,39.2 64.5,44.3 65.3,39.3 63.6,39.2 	"/>
	<polygon fill-rule="evenodd" clip-rule="evenodd" fill="#FFFFFF" points="63.3,39 58.1,38.2 63.3,37.4 63.3,39 	"/>
	<polygon fill-rule="evenodd" clip-rule="evenodd" fill="#FFFFFF" points="65.6,39 71.1,38.2 65.7,37.4 65.6,39 	"/>
	<path fill-rule="evenodd" clip-rule="evenodd" fill="#FFFFFF" d="M56.5,135c0.8,0,1.4-0.6,1.4-1.4c0-0.8-0.6-1.4-1.4-1.4
		c-0.8,0-1.4,0.6-1.4,1.4C55.1,134.3,55.7,135,56.5,135L56.5,135z"/>
	<polygon fill-rule="evenodd" clip-rule="evenodd" fill="#FFFFFF" points="55.7,132.3 56.5,127.3 57.3,132.3 55.7,132.3 	"/>
	<polygon fill-rule="evenodd" clip-rule="evenodd" fill="#FFFFFF" points="55.7,134.6 56.5,139.7 57.3,134.6 55.7,134.6 	"/>
	<polygon fill-rule="evenodd" clip-rule="evenodd" fill="#FFFFFF" points="55.4,134.4 50.1,133.5 55.3,132.8 55.4,134.4 	"/>
	<polygon fill-rule="evenodd" clip-rule="evenodd" fill="#FFFFFF" points="57.7,134.4 63.2,133.5 57.7,132.8 57.7,134.4 	"/>
	<path fill-rule="evenodd" clip-rule="evenodd" fill="#FFFFFF" d="M139.2,102.4c0.8,0,1.4-0.6,1.4-1.4c0-0.8-0.6-1.4-1.4-1.4
		c-0.8,0-1.4,0.6-1.4,1.4C137.8,101.8,138.4,102.4,139.2,102.4L139.2,102.4z"/>
	<polygon fill-rule="evenodd" clip-rule="evenodd" fill="#FFFFFF" points="138.4,99.8 139.2,94.8 140,99.8 138.4,99.8 	"/>
	<polygon fill-rule="evenodd" clip-rule="evenodd" fill="#FFFFFF" points="138.4,102.1 139.2,107.1 140,102.1 138.4,102.1 	"/>
	<polygon fill-rule="evenodd" clip-rule="evenodd" fill="#FFFFFF" points="138,101.9 132.8,101 138,100.2 138,101.9 	"/>
	<polygon fill-rule="evenodd" clip-rule="evenodd" fill="#FFFFFF" points="140.3,101.9 145.8,101 140.4,100.2 140.3,101.9 	"/>
</g>
</svg>
