<?xml version="1.0" encoding="utf-8"?>
<!-- Generator: Adobe Illustrator 18.1.1, SVG Export Plug-In . SVG Version: 6.00 Build 0)  -->
<!DOCTYPE svg PUBLIC "-//W3C//DTD SVG 1.1//EN" "http://www.w3.org/Graphics/SVG/1.1/DTD/svg11.dtd">
<svg version="1.1" id="Layer_1" xmlns="http://www.w3.org/2000/svg" xmlns:xlink="http://www.w3.org/1999/xlink" x="0px" y="0px" viewBox="0 0 50 50" enable-background="new 0 0 50 50" xml:space="preserve">
    <g>
        <circle opacity="0" fill="#FFFFFF" cx="25" cy="25" r="24.5"/>
    </g>
    <g>
        <path fill="#FFFFFF" d="M15.9,33.7c-0.4,0-0.8-0.3-0.8-0.8V17c0-0.4,0.3-0.8,0.8-0.8h4.9c0.4,0,0.8,0.3,0.8,0.8V33
            c0,0.4-0.3,0.8-0.8,0.8H15.9z"/>
    </g>
    <g>
        <path fill="#FFFFFF" d="M28.5,33.7c-0.4,0-0.8-0.3-0.8-0.8V17c0-0.4,0.3-0.8,0.8-0.8h4.9c0.4,0,0.8,0.3,0.8,0.8V33
            c0,0.4-0.3,0.8-0.8,0.8H28.5z"/>
    </g>
</svg>
