<?xml version="1.0" encoding="utf-8"?>
<!-- Generator: Adobe Illustrator 18.1.1, SVG Export Plug-In . SVG Version: 6.00 Build 0)  -->
<!DOCTYPE svg PUBLIC "-//W3C//DTD SVG 1.1//EN" "http://www.w3.org/Graphics/SVG/1.1/DTD/svg11.dtd">
<svg version="1.1" id="Layer_1" xmlns="http://www.w3.org/2000/svg" xmlns:xlink="http://www.w3.org/1999/xlink" x="0px" y="0px"
	 viewBox="0 0 49.9 49.9" enable-background="new 0 0 49.9 49.9" xml:space="preserve">
<g>
	<circle opacity="0.3" fill="#FFFFFF" cx="25" cy="25" r="24.5"/>
	<path fill="#FFFFFF" d="M25,49.9c-13.8,0-25-11.2-25-25C0,11.2,11.2,0,25,0c13.8,0,25,11.2,25,25C49.9,38.7,38.7,49.9,25,49.9z
		 M25,1C11.8,1,1,11.8,1,25c0,13.2,10.8,24,24,24c13.2,0,24-10.8,24-24C48.9,11.8,38.2,1,25,1z"/>
</g>
<g>
	<g>
		<path fill="#FDFDFE" d="M17.8,14.2c0-0.8,0.6-1.2,1.3-0.7l17.6,10.4c0.7,0.4,0.7,1.1,0,1.6l-17.6,11c-0.7,0.4-1.3,0.1-1.3-0.7
			V14.2z"/>
	</g>
</g>
</svg>
