<?xml version="1.0" encoding="utf-8"?>
<!-- Generator: Adobe Illustrator 18.1.1, SVG Export Plug-In . SVG Version: 6.00 Build 0)  -->
<svg version="1.1" id="Layer_1" xmlns="http://www.w3.org/2000/svg" xmlns:xlink="http://www.w3.org/1999/xlink" x="0px" y="0px"
	 viewBox="0 0 200 156.6" enable-background="new 0 0 200 156.6" xml:space="preserve">
<path fill="#525352" d="M3.2,61.2c0-3.9,1.9-24.5,29.9-24.5c15.4,0,29.6,7.8,29.6,24.9c0,10.8-7.2,16.3-18.1,19l-15.2,3.7
	c-11.2,2.8-15.5,4.9-15.5,11.2c0,8.7,8.5,12.4,17.9,12.4c18.5,0,20.3-9.8,20.8-16h12.7c-0.5,9.4-2.7,27.3-33.6,27.3
	c-17.6,0-30.9-9.7-30.9-25.8c0-10.6,5.7-16.6,22-20.6l13.1-3.3c10.2-2.5,14.2-4,14.2-10.4c0-9.7-11.5-11.1-15.5-11.1
	c-16.6,0-18.4,8.2-18.5,13.1H3.2z"/>
<g>
	<rect x="95.4" y="0" fill="#525352" width="5.3" height="155.6"/>
</g>
<path fill="#525352" d="M199.4,77.6c0,20.2-11.4,41.2-36.3,41.2s-36.3-21.1-36.3-41.2c0-20.2,11.4-41.2,36.3-41.2
	S199.4,57.5,199.4,77.6z M185.8,77.6c0-10.5-3.9-29.9-22.7-29.9c-18.8,0-22.7,19.4-22.7,29.9c0,10.5,3.9,29.9,22.7,29.9
	C181.9,107.5,185.8,88.1,185.8,77.6z"/>
</svg>
