<?xml version="1.0" encoding="utf-8"?>
<!-- Generator: Adobe Illustrator 18.1.1, SVG Export Plug-In . SVG Version: 6.00 Build 0)  -->
<svg version="1.1" id="Layer_1" xmlns="http://www.w3.org/2000/svg" xmlns:xlink="http://www.w3.org/1999/xlink" x="0px" y="0px"
	 viewBox="0 0 400 376.7" enable-background="new 0 0 400 376.7" xml:space="preserve">
<g>
	<g>
		<g>
			<g>
				<g>
					<g>
						<path fill="#525352" d="M200.3,376.7c-67.6,0-130.4-36.6-163.8-95.4c-0.6-1.1-0.2-2.6,0.9-3.2c1.1-0.6,2.6-0.2,3.2,0.9
							c32.6,57.4,93.8,93,159.8,93c65.4,0,126.3-35.2,159.1-91.9c0.6-1.1,2.1-1.5,3.2-0.9c1.1,0.6,1.5,2.1,0.9,3.2
							C329.8,340.6,267.3,376.7,200.3,376.7z"/>
					</g>
					<g>
						<path fill="#525352" d="M29.7,116.4c-0.3,0-0.6-0.1-0.9-0.2c-1.2-0.5-1.7-1.9-1.2-3.1C57.5,44.4,125.3,0,200.3,0
							C275,0,342.7,44.2,372.8,112.6c0.5,1.2,0,2.6-1.2,3.1c-1.2,0.5-2.6,0-3.1-1.2C339.1,47.8,273.1,4.7,200.3,4.7
							C127.2,4.7,61.1,48,31.8,115C31.5,115.9,30.6,116.4,29.7,116.4z"/>
					</g>
				</g>
				<g>
					<path fill="#525352" d="M320.1,72.7c-14.1,0-25.6-11.5-25.6-25.6c0-14.1,11.5-25.6,25.6-25.6c14.1,0,25.6,11.5,25.6,25.6
						C345.7,61.2,334.2,72.7,320.1,72.7z M320.1,26.8c-11.2,0-20.3,9.1-20.3,20.3c0,11.2,9.1,20.3,20.3,20.3
						c11.2,0,20.3-9.1,20.3-20.3C340.4,35.9,331.3,26.8,320.1,26.8z"/>
				</g>
			</g>
			<g>
				<g>
					<path fill="#525352" d="M346.4,21.5c-0.6,0-1.2-0.2-1.7-0.7c-0.9-0.9-0.9-2.4,0-3.3l7.5-7.5c0.9-0.9,2.4-0.9,3.3,0
						c0.9,0.9,0.9,2.4,0,3.3l-7.5,7.5C347.6,21.2,347,21.5,346.4,21.5z"/>
				</g>
				<g>
					<path fill="#525352" d="M335.9,15.3c-1.3,0-2.4-1.1-2.4-2.3V5.7c0-1.3,1.1-2.3,2.4-2.3c1.3,0,2.3,1.1,2.3,2.3V13
						C338.3,14.3,337.2,15.3,335.9,15.3z"/>
				</g>
				<g>
					<path fill="#525352" d="M360.6,32.8h-7c-1.3,0-2.3-1.1-2.3-2.3c0-1.3,1-2.3,2.3-2.3h7c1.3,0,2.3,1.1,2.3,2.3
						C363,31.7,361.9,32.8,360.6,32.8z"/>
				</g>
			</g>
		</g>
	</g>
	<g>
		<g>
			<g>
				<path fill="#525352" d="M82.8,98.7c0-0.3,0.3-0.5,0.5-0.5h3.4c0.3,0,0.5,0.3,0.5,0.5v18.9c0,0.3-0.3,0.5-0.5,0.5h-3.4
					c-0.3,0-0.5-0.3-0.5-0.5V98.7z"/>
				<path fill="#525352" d="M93.6,98.4c0-0.3,0.3-0.5,0.5-0.5h0.7l11.4,11h0V98.7c0-0.3,0.2-0.5,0.5-0.5h3.4c0.3,0,0.5,0.3,0.5,0.5
					v19.2c0,0.3-0.3,0.5-0.5,0.5h-0.5c-0.1,0-0.3-0.1-0.4-0.1l-11.3-11.3h0v10.7c0,0.3-0.2,0.5-0.5,0.5h-3.4c-0.3,0-0.5-0.3-0.5-0.5
					L93.6,98.4z"/>
				<path fill="#525352" d="M119.7,102.3h-4.1c-0.3,0-0.5-0.3-0.5-0.5v-3.1c0-0.3,0.2-0.5,0.5-0.5h12.7c0.3,0,0.5,0.3,0.5,0.5v3.1
					c0,0.3-0.2,0.5-0.5,0.5h-4.1v15.3c0,0.3-0.3,0.5-0.5,0.5h-3.4c-0.3,0-0.5-0.3-0.5-0.5V102.3z"/>
				<path fill="#525352" d="M133.1,98.7c0-0.3,0.2-0.5,0.5-0.5h11.8c0.3,0,0.5,0.3,0.5,0.5v3.1c0,0.3-0.2,0.5-0.5,0.5h-7.9v3.5h6.5
					c0.3,0,0.5,0.3,0.5,0.5v3.1c0,0.3-0.3,0.5-0.5,0.5h-6.5v3.9h7.9c0.3,0,0.5,0.3,0.5,0.5v3.1c0,0.3-0.2,0.5-0.5,0.5h-11.8
					c-0.3,0-0.5-0.3-0.5-0.5V98.7z"/>
				<path fill="#525352" d="M151.3,98.7c0-0.3,0.2-0.5,0.5-0.5h8.5c3.4,0,6.2,2.8,6.2,6.2c0,2.6-1.7,4.7-4.2,5.7l3.9,7.3
					c0.2,0.4,0,0.8-0.5,0.8H162c-0.2,0-0.4-0.1-0.5-0.3l-3.8-7.6h-2v7.3c0,0.3-0.3,0.5-0.5,0.5h-3.4c-0.3,0-0.5-0.3-0.5-0.5V98.7z
					 M160,106.7c1.2,0,2.2-1.1,2.2-2.3s-1-2.2-2.2-2.2h-4.2v4.5H160z"/>
				<path fill="#525352" d="M171.8,98.4c0-0.3,0.3-0.5,0.5-0.5h0.7l11.4,11h0V98.7c0-0.3,0.2-0.5,0.5-0.5h3.4c0.3,0,0.5,0.3,0.5,0.5
					v19.2c0,0.3-0.3,0.5-0.5,0.5H188c-0.1,0-0.3-0.1-0.4-0.1l-11.3-11.3h0v10.7c0,0.3-0.2,0.5-0.5,0.5h-3.4c-0.3,0-0.5-0.3-0.5-0.5
					L171.8,98.4z"/>
				<path fill="#525352" d="M192.8,117.4l8.9-19.2c0.1-0.2,0.3-0.3,0.5-0.3h0.3c0.2,0,0.4,0.1,0.5,0.3l8.9,19.2
					c0.2,0.4-0.1,0.7-0.5,0.7h-3.2c-0.5,0-0.7-0.2-1-0.7l-1-2.3h-7.8l-1,2.3c-0.1,0.3-0.5,0.7-1,0.7h-3.1
					C192.9,118.1,192.6,117.8,192.8,117.4z M204.5,111.3l-2.2-4.7h0l-2.1,4.7H204.5z"/>
				<path fill="#525352" d="M217.3,102.3h-4.1c-0.3,0-0.5-0.3-0.5-0.5v-3.1c0-0.3,0.2-0.5,0.5-0.5h12.7c0.3,0,0.5,0.3,0.5,0.5v3.1
					c0,0.3-0.2,0.5-0.5,0.5h-4.1v15.3c0,0.3-0.3,0.5-0.5,0.5h-3.4c-0.3,0-0.5-0.3-0.5-0.5V102.3z"/>
				<path fill="#525352" d="M230.7,98.7c0-0.3,0.3-0.5,0.5-0.5h3.4c0.3,0,0.5,0.3,0.5,0.5v18.9c0,0.3-0.3,0.5-0.5,0.5h-3.4
					c-0.3,0-0.5-0.3-0.5-0.5V98.7z"/>
				<path fill="#525352" d="M250.3,97.9c5.7,0,10.3,4.6,10.3,10.3c0,5.7-4.6,10.3-10.3,10.3c-5.7,0-10.3-4.5-10.3-10.3
					C240.1,102.5,244.6,97.9,250.3,97.9z M250.3,113.9c3.1,0,5.7-2.6,5.7-5.7c0-3.1-2.6-5.7-5.7-5.7c-3.1,0-5.7,2.6-5.7,5.7
					C244.6,111.3,247.2,113.9,250.3,113.9z"/>
				<path fill="#525352" d="M265.5,98.4c0-0.3,0.3-0.5,0.5-0.5h0.7l11.4,11h0V98.7c0-0.3,0.2-0.5,0.5-0.5h3.4c0.3,0,0.5,0.3,0.5,0.5
					v19.2c0,0.3-0.3,0.5-0.5,0.5h-0.5c-0.1,0-0.3-0.1-0.4-0.1L270,106.9h0v10.7c0,0.3-0.2,0.5-0.5,0.5H266c-0.3,0-0.5-0.3-0.5-0.5
					L265.5,98.4z"/>
				<path fill="#525352" d="M286.4,117.4l8.9-19.2c0.1-0.2,0.3-0.3,0.5-0.3h0.3c0.2,0,0.4,0.1,0.5,0.3l8.9,19.2
					c0.2,0.4-0.1,0.7-0.5,0.7h-3.2c-0.5,0-0.7-0.2-1-0.7l-1-2.3h-7.8l-1,2.3c-0.1,0.3-0.5,0.7-1,0.7h-3.1
					C286.5,118.1,286.2,117.8,286.4,117.4z M298.2,111.3l-2.2-4.7h0l-2.1,4.7H298.2z"/>
				<path fill="#525352" d="M309.3,98.7c0-0.3,0.2-0.5,0.5-0.5h3.4c0.3,0,0.5,0.3,0.5,0.5v15.3h6.8c0.3,0,0.5,0.3,0.5,0.5v3.1
					c0,0.3-0.2,0.5-0.5,0.5h-10.7c-0.3,0-0.5-0.3-0.5-0.5V98.7z"/>
			</g>
		</g>
		<g>
			<g>
				<path fill="#525352" d="M124,287.9c2.9,0,5,0.9,6.9,2.7c0.3,0.2,0.3,0.6,0,0.8l-2.2,2.3c-0.2,0.2-0.5,0.2-0.7,0
					c-1.1-0.9-2.5-1.5-3.9-1.5c-3.2,0-5.6,2.7-5.6,5.9c0,3.2,2.4,5.8,5.6,5.8c1.3,0,2.8-0.5,3.8-1.4c0.2-0.2,0.6-0.2,0.7,0l2.2,2.4
					c0.2,0.2,0.2,0.6,0,0.8c-1.9,1.9-4.4,2.8-6.9,2.8c-5.7,0-10.3-4.5-10.3-10.3C113.7,292.5,118.3,287.9,124,287.9z"/>
				<path fill="#525352" d="M135.8,288.7c0-0.3,0.3-0.5,0.5-0.5h3.4c0.3,0,0.5,0.3,0.5,0.5v7.2h8.2v-7.2c0-0.3,0.2-0.5,0.5-0.5h3.4
					c0.3,0,0.5,0.3,0.5,0.5v18.9c0,0.3-0.3,0.5-0.5,0.5H149c-0.3,0-0.5-0.3-0.5-0.5v-7.5h-8.2v7.5c0,0.3-0.2,0.5-0.5,0.5h-3.4
					c-0.3,0-0.5-0.3-0.5-0.5V288.7z"/>
				<path fill="#525352" d="M156.7,307.4l8.9-19.2c0.1-0.2,0.3-0.3,0.5-0.3h0.3c0.2,0,0.4,0.1,0.5,0.3l8.9,19.2
					c0.2,0.4-0.1,0.7-0.5,0.7h-3.2c-0.5,0-0.7-0.2-1-0.7l-1-2.3h-7.8l-1,2.3c-0.1,0.3-0.5,0.7-1,0.7h-3.1
					C156.8,308.2,156.5,307.8,156.7,307.4z M168.5,301.3l-2.2-4.7h0l-2.1,4.7H168.5z"/>
				<path fill="#525352" d="M179.6,288.7c0-0.3,0.2-0.5,0.5-0.5h3.4c0.3,0,0.5,0.3,0.5,0.5V304h6.8c0.3,0,0.5,0.3,0.5,0.5v3.1
					c0,0.3-0.2,0.5-0.5,0.5h-10.7c-0.3,0-0.5-0.3-0.5-0.5V288.7z"/>
				<path fill="#525352" d="M195.6,288.7c0-0.3,0.2-0.5,0.5-0.5h3.4c0.3,0,0.5,0.3,0.5,0.5V304h6.8c0.3,0,0.5,0.3,0.5,0.5v3.1
					c0,0.3-0.2,0.5-0.5,0.5h-10.7c-0.3,0-0.5-0.3-0.5-0.5V288.7z"/>
				<path fill="#525352" d="M211.7,288.7c0-0.3,0.2-0.5,0.5-0.5H224c0.3,0,0.5,0.3,0.5,0.5v3.1c0,0.3-0.2,0.5-0.5,0.5h-7.9v3.5h6.5
					c0.3,0,0.5,0.3,0.5,0.5v3.1c0,0.3-0.3,0.5-0.5,0.5h-6.5v3.9h7.9c0.3,0,0.5,0.3,0.5,0.5v3.1c0,0.3-0.2,0.5-0.5,0.5h-11.8
					c-0.3,0-0.5-0.3-0.5-0.5V288.7z"/>
				<path fill="#525352" d="M229.8,288.4c0-0.3,0.3-0.5,0.5-0.5h0.7l11.4,11h0v-10.1c0-0.3,0.2-0.5,0.5-0.5h3.4
					c0.3,0,0.5,0.3,0.5,0.5V308c0,0.3-0.3,0.5-0.5,0.5H246c-0.1,0-0.3-0.1-0.4-0.1L234.3,297h0v10.7c0,0.3-0.2,0.5-0.5,0.5h-3.4
					c-0.3,0-0.5-0.3-0.5-0.5L229.8,288.4z"/>
				<path fill="#525352" d="M262.2,287.9c2.4,0,5,1,7,2.7c0.3,0.2,0.3,0.5,0.1,0.8l-2.3,2.4c-0.2,0.2-0.5,0.2-0.8,0
					c-1.1-1-2.3-1.4-3.7-1.4c-3.1,0-5.6,2.6-5.6,5.8c0,3.1,2.5,5.7,5.7,5.7c0.8,0,1.7-0.1,2.5-0.5v-1.7h-1.8c-0.3,0-0.5-0.2-0.5-0.5
					v-2.8c0-0.3,0.2-0.5,0.5-0.5h5.7c0.3,0,0.5,0.3,0.5,0.5l0,7.7c0,0.1-0.1,0.4-0.2,0.5c0,0-2.9,1.9-7.1,1.9
					c-5.7,0-10.3-4.5-10.3-10.2C251.9,292.5,256.5,287.9,262.2,287.9z"/>
				<path fill="#525352" d="M274.8,288.7c0-0.3,0.2-0.5,0.5-0.5h11.8c0.3,0,0.5,0.3,0.5,0.5v3.1c0,0.3-0.2,0.5-0.5,0.5h-7.9v3.5h6.5
					c0.3,0,0.5,0.3,0.5,0.5v3.1c0,0.3-0.3,0.5-0.5,0.5h-6.5v3.9h7.9c0.3,0,0.5,0.3,0.5,0.5v3.1c0,0.3-0.2,0.5-0.5,0.5h-11.8
					c-0.3,0-0.5-0.3-0.5-0.5V288.7z"/>
			</g>
		</g>
		<g>
			<path fill="#525352" d="M23.2,219.8c0-1.5,0-2.9-0.1-3.9c-0.1-1.1-0.3-2-0.5-2.8c-0.3-0.8-0.6-1.5-1-2.1
				c-0.4-0.6-0.9-1.4-1.5-2.1c-1.3-1.5-2.6-3-3.9-4.3c-1.3-1.3-2.6-2.7-4-4c-1.4-1.3-2.8-2.7-4.2-4.2c-1.4-1.5-2.9-3.2-4.4-5.1
				c-1.7-2-2.7-4-3-6.1C0.1,183,0,180.5,0,177.5v-15.8c0-11.7,5.5-17.5,16.5-17.5c5.9,0,10.1,1.4,12.5,4.3c2.4,2.9,3.6,7.3,3.6,13.2
				v19.3h-9.1v-18c0-2.7-0.4-4.8-1.4-6.4c-0.9-1.6-2.7-2.4-5.3-2.4c-4.6,0-6.8,2.5-6.8,7.6v15.7c0,2.2,0.1,3.9,0.5,4.9
				c0.3,1,0.9,2.1,1.9,3.3c2.6,3.3,5.2,6.1,7.9,8.6c2.7,2.5,5.4,5.4,8.2,8.6c1.9,2.2,3.1,4.6,3.7,7c0.6,2.4,0.9,5.7,0.9,9.9v15.2
				c0,5.7-1.3,10-3.8,13c-2.5,3-6.8,4.5-12.7,4.5c-5.8,0-9.9-1.5-12.6-4.5c-2.6-3-3.9-7.3-3.9-13v-22.5h9.4v21.1
				c0,2.8,0.5,5,1.5,6.7c1,1.7,2.8,2.6,5.3,2.6c2.5,0,4.3-0.7,5.3-2c1.1-1.3,1.6-3.3,1.6-5.9V219.8z"/>
			<path fill="#525352" d="M44.4,251.2v-106H61c6.2,0,10.8,1.5,13.8,4.6c3,3.1,4.5,7.9,4.5,14.5v17.4c0,6.7-1.5,11.5-4.4,14.5
				c-2.9,3-7.5,4.5-13.7,4.5h-6.9v50.3H44.4z M69.4,164.5c0-3.2-0.6-5.5-1.9-7c-1.3-1.5-3.5-2.3-6.6-2.3h-6.7v36.2H61
				c2.8,0,4.9-0.7,6.3-2.2c1.4-1.5,2.1-3.8,2.1-7.1V164.5z"/>
			<path fill="#525352" d="M111.4,251.2l-2.3-17.8H93.2l-2.3,17.8h-9.5l14.5-106h11.5l13.8,106H111.4z M107.9,224.5
				c-1.1-9.1-2.2-18.1-3.3-27.1c-1.1-9-2.2-18-3.2-27.2c-1.1,9.2-2.3,18.3-3.4,27.2c-1.2,9-2.3,18-3.5,27.1H107.9z"/>
			<path fill="#525352" d="M152.3,212.4h8.9v21.9c0,6.2-1.2,10.8-3.7,13.7c-2.4,3-6.4,4.4-11.8,4.4c-11.2,0-16.9-6-16.9-17.9v-72.1
				c0-12.2,5.6-18.3,16.9-18.3c10.3,0,15.5,6,15.5,18v18.8h-8.9v-18.7c0-2.8-0.5-4.9-1.4-6.2c-1-1.3-2.7-2-5.2-2c-4.7,0-7,2.7-7,8.2
				v72.1c0,5.6,2.3,8.4,7,8.4c2.4,0,4.1-0.7,5.1-2.1c1-1.4,1.5-3.5,1.5-6.3V212.4z"/>
			<path fill="#525352" d="M172.6,251.2v-106h28.1v9.9h-18.3v37.1h12.9v9.9h-12.9v39.4h18.9v9.7H172.6z"/>
			<path fill="#525352" d="M259.4,251.2l-2.3-17.8h-15.8l-2.3,17.8h-9.5l14.6-106h11.5l13.8,106H259.4z M255.9,224.5
				c-1.1-9.1-2.2-18.1-3.3-27.1c-1.1-9-2.2-18-3.2-27.2c-1.1,9.2-2.3,18.3-3.4,27.2c-1.2,9-2.3,18-3.5,27.1H255.9z"/>
			<path fill="#525352" d="M279,251.2v-106h16.5c6.2,0,10.8,1.5,13.8,4.6c3,3.1,4.5,7.9,4.5,14.5v17.4c0,6.7-1.5,11.5-4.4,14.5
				c-2.9,3-7.5,4.5-13.7,4.5h-6.9v50.3H279z M304,164.5c0-3.2-0.6-5.5-1.9-7c-1.3-1.5-3.5-2.3-6.6-2.3h-6.7v36.2h6.8
				c2.8,0,4.9-0.7,6.3-2.2c1.4-1.5,2.1-3.8,2.1-7.1V164.5z"/>
			<path fill="#525352" d="M323.7,251.2v-106h16.5c6.2,0,10.8,1.5,13.8,4.6c3,3.1,4.5,7.9,4.5,14.5v17.4c0,6.7-1.5,11.5-4.4,14.5
				c-2.9,3-7.5,4.5-13.7,4.5h-6.9v50.3H323.7z M348.6,164.5c0-3.2-0.6-5.5-1.9-7c-1.3-1.5-3.5-2.3-6.6-2.3h-6.7v36.2h6.8
				c2.8,0,4.9-0.7,6.3-2.2c1.4-1.5,2.1-3.8,2.1-7.1V164.5z"/>
			<path fill="#525352" d="M390.2,219.8c0-1.5,0-2.9-0.1-3.9c-0.1-1.1-0.3-2-0.5-2.8c-0.3-0.8-0.6-1.5-1-2.1c-0.4-0.6-1-1.4-1.5-2.1
				c-1.3-1.5-2.6-3-3.9-4.3c-1.3-1.3-2.6-2.7-4-4c-1.4-1.3-2.8-2.7-4.2-4.2c-1.4-1.5-2.9-3.2-4.4-5.1c-1.7-2-2.7-4-3-6.1
				c-0.3-2.1-0.4-4.7-0.4-7.7v-15.8c0-11.7,5.5-17.5,16.5-17.5c5.9,0,10.1,1.4,12.5,4.3c2.4,2.9,3.6,7.3,3.6,13.2v19.3h-9.1v-18
				c0-2.7-0.5-4.8-1.3-6.4c-0.9-1.6-2.7-2.4-5.3-2.4c-4.5,0-6.8,2.5-6.8,7.6v15.7c0,2.2,0.2,3.9,0.5,4.9c0.3,1,0.9,2.1,1.9,3.3
				c2.6,3.3,5.2,6.1,7.9,8.6c2.7,2.5,5.4,5.4,8.2,8.6c1.9,2.2,3.1,4.6,3.7,7c0.6,2.4,0.9,5.7,0.9,9.9v15.2c0,5.7-1.3,10-3.8,13
				c-2.5,3-6.8,4.5-12.7,4.5c-5.7,0-9.9-1.5-12.6-4.5c-2.6-3-3.9-7.3-3.9-13v-22.5h9.4v21.1c0,2.8,0.5,5,1.5,6.7
				c1,1.7,2.8,2.6,5.3,2.6c2.5,0,4.3-0.7,5.3-2c1.1-1.3,1.6-3.3,1.6-5.9V219.8z"/>
		</g>
	</g>
</g>
</svg>
